<svg xmlns="http://www.w3.org/2000/svg" xmlns:svg="http://www.w3.org/2000/svg" id="Capa_1" x="0" y="0" enable-background="new 0 0 47 47" version="1.1" viewBox="0 0 47 47" xml:space="preserve"><metadata id="metadata57"/><polygon id="polygon2" fill="#424A60" points="46.5 8 46.5 47 .5 47 .5 0 38.5 0"/><rect id="rect4" width="31" height="21" x="7.5" y="26" fill="#e6e6e6"/><rect id="rect6" width="31" height="12.037" x="7.5" y="26" fill="#e6e6e6"/><rect id="rect8" width="26" height="16" x="9.5" fill="#e6e6e6"/><g id="g16"><path id="path10" fill="#FFF" d="M12.5,31h7c0.553,0,1-0.447,1-1s-0.447-1-1-1h-7c-0.553,0-1,0.447-1,1S11.947,31,12.5,31z"/><path id="path12" fill="#f9f9f9" d="M22.5,33h-10c-0.553,0-1,0.447-1,1s0.447,1,1,1h10c0.553,0,1-0.447,1-1S23.053,33,22.5,33z"/></g><rect id="rect18" width="4" height="8" x="27.5" y="4" fill="none" stroke="#424A60" stroke-linecap="round" stroke-miterlimit="10" stroke-width="2"/><polygon id="polygon20" fill="#e6e6e6" points="24.5 16 9.5 16 9.5 0 16.5 0"/></svg>