<svg xmlns="http://www.w3.org/2000/svg" xmlns:xlink="http://www.w3.org/1999/xlink" id="Capa_1" x="0" y="0" enable-background="new 0 0 53 53" version="1.1" viewBox="0 0 53 53" xml:space="preserve"><rect width="2" height="18" x="27" y="28" fill="#424A60"/><rect width="2" height="21.213" x="37.5" y="2.893" fill="#424A60" transform="matrix(0.7071 0.7071 -0.7071 0.7071 20.8223 -23.2696)"/><rect width="2" height="28.284" x="15" y="21.858" fill="#424A60" transform="matrix(0.7071 0.7071 -0.7071 0.7071 30.1421 -0.7696)"/><rect width="15.556" height="2" x="10.722" y="13.5" fill="#424A60" transform="matrix(0.7071 0.7071 -0.7071 0.7071 15.6716 -8.8345)"/><rect width="21.213" height="2" x="26.893" y="32.5" fill="#424A60" transform="matrix(0.7071 0.7071 -0.7071 0.7071 34.6716 -16.7046)"/><circle cx="48" cy="5" r="5" fill="#43B05C"/><circle cx="28" cy="48" r="5" fill="#7383BF"/><circle cx="5" cy="46" r="5" fill="#57D8AB"/><circle cx="12" cy="8" r="3" fill="#D75A4A"/><circle cx="44" cy="40" r="3" fill="#EBBA16"/><circle cx="28" cy="24" r="7" fill="#4B6DAA"/></svg>