<svg xmlns="http://www.w3.org/2000/svg" xmlns:svg="http://www.w3.org/2000/svg" id="Capa_1" x="0" y="0" enable-background="new 0 0 58 58" version="1.1" viewBox="0 0 58 58" xml:space="preserve"><metadata id="metadata61"/><g id="g79"><polygon id="polygon63" fill="#efebde" points=".5 0 .5 58 45.5 58 45.5 14 31.5 0"/><g id="g75"><path id="path65" fill="#d5d0bb" d="m 10.5,23 h 25 c 0.552,0 1,-0.447 1,-1 0,-0.553 -0.448,-1 -1,-1 h -25 c -0.552,0 -1,0.447 -1,1 0,0.553 0.448,1 1,1 z"/><path id="path67" fill="#d5d0bb" d="m 10.5,15 h 10 c 0.552,0 1,-0.447 1,-1 0,-0.553 -0.448,-1 -1,-1 h -10 c -0.552,0 -1,0.447 -1,1 0,0.553 0.448,1 1,1 z"/><path id="path69" fill="#d5d0bb" d="m 35.5,29 h -25 c -0.552,0 -1,0.447 -1,1 0,0.553 0.448,1 1,1 h 25 c 0.552,0 1,-0.447 1,-1 0,-0.553 -0.448,-1 -1,-1 z"/><path id="path71" fill="#d5d0bb" d="m 35.5,37 h -25 c -0.552,0 -1,0.447 -1,1 0,0.553 0.448,1 1,1 h 25 c 0.552,0 1,-0.447 1,-1 0,-0.553 -0.448,-1 -1,-1 z"/><path id="path73" fill="#d5d0bb" d="m 35.5,45 h -25 c -0.552,0 -1,0.447 -1,1 0,0.553 0.448,1 1,1 h 25 c 0.552,0 1,-0.447 1,-1 0,-0.553 -0.448,-1 -1,-1 z"/></g><polygon id="polygon77" fill="#d5d0bb" points="45.5 14 31.5 0 31.5 14"/></g><g id="g63" transform="matrix(0.58853339,0,0,0.58853339,24.540777,29.719351)"><path id="path2" fill="#424a60" d="M 40.693,47.277 H 3.307 C 2.033,47.277 1,46.244 1,44.97 V 19.584 C 1,18.31 2.033,17.277 3.307,17.277 h 37.386 c 1.274,0 2.307,1.033 2.307,2.307 V 44.97 c 0,1.274 -1.033,2.307 -2.307,2.307 z"/><path id="path4" fill="#556080" d="M 52.074,47.465 43,43.277 v -22 l 9.074,-4.188 C 53.907,16.243 56,17.582 56,19.601 v 25.352 c 0,2.019 -2.093,3.358 -3.926,2.512 z"/><path id="path6" fill="none" stroke="#424a60" stroke-linecap="round" stroke-miterlimit="10" stroke-width="2" d="m 1,9.277 h 32 c 1.1,0 2,0.9 2,2 v 6"/></g></svg>